<?xml version="1.0" encoding="UTF-8" standalone="no"?>
<svg
   xmlns:dc="http://purl.org/dc/elements/1.1/"
   xmlns:cc="http://creativecommons.org/ns#"
   xmlns:rdf="http://www.w3.org/1999/02/22-rdf-syntax-ns#"
   xmlns:svg="http://www.w3.org/2000/svg"
   xmlns="http://www.w3.org/2000/svg"
   xmlns:sodipodi="http://sodipodi.sourceforge.net/DTD/sodipodi-0.dtd"
   xmlns:inkscape="http://www.inkscape.org/namespaces/inkscape"
   version="1.1"
   x="0px"
   y="0px"
   width="100px"
   height="100px"
   viewBox="0 0 100 100"
   enable-background="new 0 0 100 100"
   xml:space="preserve"
   id="svg3053"
   inkscape:version="0.48.4 r9939"
   sodipodi:docname="icon_15331_favicon.svg"
   inkscape:export-filename="/home/christopher/Documents/Repositories/project-octopus.org/octopodes/vendor/assets/icon_15331/favicon.png"
   inkscape:export-xdpi="14.4"
   inkscape:export-ydpi="14.4"><metadata
     id="metadata3065"><rdf:RDF><cc:Work
         rdf:about=""><dc:format>image/svg+xml</dc:format><dc:type
           rdf:resource="http://purl.org/dc/dcmitype/StillImage" /><dc:title></dc:title></cc:Work></rdf:RDF></metadata><defs
     id="defs3063" /><sodipodi:namedview
     pagecolor="#ffffff"
     bordercolor="#666666"
     borderopacity="1"
     objecttolerance="10"
     gridtolerance="10"
     guidetolerance="10"
     inkscape:pageopacity="0"
     inkscape:pageshadow="2"
     inkscape:window-width="1918"
     inkscape:window-height="1064"
     id="namedview3061"
     showgrid="false"
     inkscape:zoom="6.3356768"
     inkscape:cx="50.456188"
     inkscape:cy="44.776101"
     inkscape:window-x="0"
     inkscape:window-y="0"
     inkscape:window-maximized="0"
     inkscape:current-layer="Layer_2" /><g
     id="Captions" /><g
     id="Your_Icon" /><g
     id="Layer_1" /><g
     id="Layer_2"><path
       d="M 79.869,76.395 C 77.891,75.4 75.651,74.27 75.18,71.792 74.784,69.705 75.242,66.81 75.684,64.009 76.149,61.07 76.642,57.918 76.144,55.38 82.166,49.492 85.866,41.585 85.866,32.894 85.865,14.756 69.777,0 50.002,0 30.225,0 14.135,14.756 14.135,32.894 c 0,10.195 5.084,19.323 13.049,25.361 -0.053,2.145 0.422,4.605 0.895,7.031 0.682,3.496 1.386,7.111 0.448,9.413 -0.825,2.027 -2.062,2.931 -4.009,2.931 l 0,0 c -1.31,0 -2.706,-0.404 -3.939,-0.761 -1.011,-0.291 -1.884,-0.543 -2.612,-0.543 -1.015,0 -1.748,0.531 -1.96,1.425 -0.155,0.656 -0.146,1.683 0.778,2.853 1.715,2.167 5.846,3.803 9.607,3.802 5.034,0 8.463,-2.687 9.408,-7.373 0.379,-1.88 0.972,-3.663 1.625,-5.343 0.192,1.656 0.436,3.256 0.657,4.703 0.076,0.505 0.15,0.992 0.22,1.457 0.74,5.02 -1.639,7.879 -3.375,9.967 -1.145,1.378 -2.57,3.091 -0.99,4.596 0.784,0.744 1.781,1.138 2.883,1.138 1.653,0 3.401,-0.878 4.922,-2.471 2.964,-3.107 4.508,-8.213 4.235,-14.007 -0.188,-3.997 1.644,-6.672 3.426,-8.989 0.836,2.138 1.56,4.566 1.02,7.613 -2.252,12.719 -2.22,20.246 0.099,23.013 0.707,0.844 1.648,1.29 2.721,1.29 l 10e-4,0 c 0.117,0 0.237,-0.005 0.359,-0.016 0.877,-0.077 1.637,-0.473 2.196,-1.143 1.847,-2.21 1.397,-7.164 0.876,-12.901 -0.395,-4.327 -0.801,-8.805 -0.094,-11.663 0.542,-2.195 1.327,-3.868 2.177,-5.229 0.433,1.582 0.676,3.443 0.292,5.901 -0.743,4.784 0.483,9.591 3.284,12.86 1.707,1.994 3.77,3.137 5.66,3.138 l 0.001,0 c 0.823,0 1.576,-0.216 2.236,-0.638 0.638,-0.409 0.852,-0.935 0.918,-1.304 0.198,-1.09 -0.547,-2.084 -1.576,-3.459 -1.565,-2.092 -3.708,-4.957 -3.093,-8.962 0.235,-1.53 0.726,-3.305 1.243,-5.182 0.148,-0.541 0.302,-1.095 0.451,-1.658 0.107,0.608 0.2,1.247 0.26,1.958 0.657,7.799 5.747,10.565 9.905,10.565 l 0.001,0 c 2.286,0 4.044,-0.845 4.48,-2.154 0.638,-1.91 -1.269,-2.871 -2.951,-3.718 z M 49.998,58.724 c -9.952,0 -20.757,-0.582 -20.757,-7.186 0,-6.608 10.805,-23.199 20.757,-23.199 9.955,0 20.758,16.591 20.758,23.199 0,6.604 -10.803,7.186 -20.758,7.186 z m 5.233,-22.237 c -1.157,0 -2.091,11.328 -2.091,12.967 0,1.64 2.934,2.967 4.091,2.967 1.15,0 4.087,-1.327 4.087,-2.967 0,-1.639 -4.936,-12.967 -6.087,-12.967 z m -10.463,0 c -1.149,0 -6.088,11.328 -6.088,12.967 0,1.64 2.938,2.967 4.088,2.967 1.158,0 4.092,-1.327 4.092,-2.967 -10e-4,-1.639 -0.934,-12.967 -2.092,-12.967 z"
       id="path3059"
       inkscape:connector-curvature="0"
       sodipodi:nodetypes="cccccssccccccscccccccccscccccssccccccccscccccccssccssssssssssssscs" /></g></svg>